{"title":"Fame 1980 DVDrip Engels Klam","uid":5874361,"size":2103310840,"categoryP":"video","categoryS":"movies","magnet":"?xt=urn:btih:6b3d61e4b998245efe4aeca3c71997eb312caf5d&amp;dn=Fame+1980+DVDrip+Engels+Klam&amp;tr=udp%3A%2F%2Ftracker.openbittorrent.com%3A80&amp;tr=udp%3A%2F%2Fopen.demonii.com%3A1337&amp;tr=udp%3A%2F%2Ftracker.coppersurfer.tk%3A6969&amp;tr=udp%3A%2F%2Fexodus.desync.com%3A6969","seeders":1,"leechers":0,"uploader":"Klambake","files":-1,"time":1286555116,"description":"With: Irene Cara, Lee Curreri en Laura Dean\n\nAt the New York City High School for the Performing Arts, students get specialized training that often leads to success as actors, singers, etc. This movie follows four students from the time when they audition to get into the school, through graduation. They are the brazen Coco Hernandez, shy Doris Finsecker, sensitive gay Montgomery MacNeil, and brash, abrasive Raul Garcia.\n\nGeneral:\n\nComplete name                    : Klambake\\Fame\\Fame.avi\nFormat                           : AVI\nFormat/Info                      : Audio Video Interleave\nFile size                        : 1.96 GiB\nDuration                         : 2h 8mn\nOverall bit rate                 : 2 188 Kbps\n\nVideo:\n\nFormat                           : MPEG-4 Visual\nFormat profile                   : Simple@L3\nFormat settings, BVOP            : No\nFormat settings, QPel            : No\nFormat settings, GMC             : No warppoints\nFormat settings, Matrix          : Default (H.263)\nCodec ID                         : XVID\nCodec ID/Hint                    : XviD\nDuration                         : 2h 8mn\nBit rate                         : 1 793 Kbps\nWidth                            : 720 pixels\nHeight                           : 576 pixels\nDisplay aspect ratio             : 5:4\nFrame rate                       : 25.000 fps\nStandard                         : PAL\nColor space                      : YUV\nChroma subsampling               : 4:2:0\nBit depth                        : 8 bits\nScan type                        : Progressive\nBits/(Pixel*Frame)               : 0.173\nStream size                      : 1.60 GiB (82%)\nWriting library                  : XviD 1.1.2 (UTC 2006-11-01)\n\nAudio:\n\nFormat                           : AC-3\nFormat/Info                      : Audio Coding 3\nMode extension                   : CM (complete main)\nCodec ID                         : 2000\nDuration                         : 2h 8mn\nBit rate mode                    : Constant\nBit rate                         : 384 Kbps\nChannel(s)                       : 6 channels\nChannel positions                : Front: L C R, Side: L R, LFE\nSampling rate                    : 48.0 KHz\nBit depth                        : 16 bits\nStream size                      : 352 MiB (18%)\nAlignment                        : Aligned on interleaves\nInterleave, duration             : 32 ms (0.80 video frame)\nInterleave, preload duration     : 1248 ms\n","torrent":{"xt":"urn:btih:6b3d61e4b998245efe4aeca3c71997eb312caf5d","amp;dn":"Fame+1980+DVDrip+Engels+Klam","amp;tr":["udp%3A%2F%2Ftracker.openbittorrent.com%3A80","udp%3A%2F%2Fopen.demonii.com%3A1337","udp%3A%2F%2Ftracker.coppersurfer.tk%3A6969","udp%3A%2F%2Fexodus.desync.com%3A6969"],"infoHash":"6b3d61e4b998245efe4aeca3c71997eb312caf5d","infoHashBuffer":{"type":"Buffer","data":[107,61,97,228,185,152,36,94,254,74,236,163,199,25,151,235,49,44,175,93]},"announce":[],"urlList":[]}}